HIERARCHY
ROOT Hips
{
	OFFSET 0.00000 0.00000 0.00000
	CHANNELS 6 Xposition Yposition Zposition Zrotation Yrotation Xrotation 
	JOINT LHipJoint
	{
		OFFSET 0 0 0
		CHANNELS 3 Zrotation Yrotation Xrotation
		JOINT LeftHip
		{
			OFFSET 1.84395 -1.68683 0.74144
			CHANNELS 3 Zrotation Yrotation Xrotation
			JOINT LeftKnee
			{
				OFFSET 2.27037 -6.23779 0.00000
				CHANNELS 3 Zrotation Yrotation Xrotation
				JOINT LeftAnkle
				{
					OFFSET 2.56918 -7.05877 0.00000
					CHANNELS 3 Zrotation Yrotation Xrotation
					JOINT LeftToe
					{
						OFFSET 0.22276 -0.61202 1.71784
						CHANNELS 3 Zrotation Yrotation Xrotation
						End Site
						{
							OFFSET 0.00000 -0.00000 0.91613
						}
					}
				}
			}
		}
	}
	JOINT RHipJoint
	{
		OFFSET 0 0 0
		CHANNELS 3 Zrotation Yrotation Xrotation
		JOINT RightHip
		{
			OFFSET -1.76833 -1.68684 0.74144
			CHANNELS 3 Zrotation Yrotation Xrotation
			JOINT RightKnee
			{
				OFFSET -2.49360 -6.85110 0.00000
				CHANNELS 3 Zrotation Yrotation Xrotation
				JOINT RightAnkle
				{
					OFFSET -2.55538 -7.02085 0.00000
					CHANNELS 3 Zrotation Yrotation Xrotation
					JOINT RightToe
					{
						OFFSET -0.21516 -0.59115 1.68050
						CHANNELS 3 Zrotation Yrotation Xrotation
						End Site
						{
							OFFSET -0.00000 -0.00000 0.89604
						}
					}
				}
			}
		}
	}
	JOINT lowerback
	{
		OFFSET 0 0 0
		CHANNELS 3 Zrotation Yrotation Xrotation
		JOINT Chest
		{
			OFFSET 0.06382 1.72312 -0.19613
			CHANNELS 3 Zrotation Yrotation Xrotation
			JOINT Chest2
			{
				OFFSET -0.00055 1.73507 0.23859
				CHANNELS 3 Zrotation Yrotation Xrotation
				JOINT lowerneck
				{
					OFFSET 0 0 0
					CHANNELS 3 Zrotation Yrotation Xrotation
					JOINT Neck
					{
						OFFSET 0.03638 1.65562 0.09633
						CHANNELS 3 Zrotation Yrotation Xrotation
						JOINT Head
						{
							OFFSET 0.06388 1.62807 -0.32386
							CHANNELS 3 Zrotation Yrotation Xrotation
							End Site
							{
								OFFSET 0.00995 1.67644 -0.12021
							}
						}
					}
				}
				JOINT LeftCollar
				{
					OFFSET 0 0 0
					CHANNELS 3 Zrotation Yrotation Xrotation
					JOINT LeftShoulder
					{
						OFFSET 3.09648 1.42991 0.28122
CHANNELS 3 Zrotation Xrotation Yrotation
						JOINT LeftElbow
						{
OFFSET 0 -5.118780 -0.000000
CHANNELS 3 Zrotation Xrotation Yrotation
							JOINT LeftWrist
							{
OFFSET 0 -3.599710 0.000000
CHANNELS 3 Zrotation Xrotation Yrotation
								JOINT lhand
								{
									OFFSET 0 0 0
CHANNELS 3 Zrotation Xrotation Yrotation
									JOINT LFingers
									{
OFFSET 0 -0.628770 0.000000
CHANNELS 3 Zrotation Xrotation Yrotation
										End Site
										{
OFFSET 0 -0.506930 0.000000
										}
									}
								}
								JOINT LThumb
								{
OFFSET 0 0.000000 0.000000
CHANNELS 3 Zrotation Xrotation Yrotation
									End Site
									{
OFFSET 0 -0.514670 0.514670
									}
								}
							}
						}
					}
				}
				JOINT RightCollar
				{
					OFFSET 0 0 0
					CHANNELS 3 Zrotation Yrotation Xrotation
					JOINT RightShoulder
					{
						OFFSET -3.33565 1.14597 0.05047
CHANNELS 3 Zrotation Xrotation Yrotation
						JOINT RightElbow
						{
OFFSET 0 -5.490200 0.000000
CHANNELS 3 Zrotation Xrotation Yrotation
							JOINT RightWrist
							{
OFFSET 0 -3.206590 -0.000000
CHANNELS 3 Zrotation Xrotation Yrotation
								JOINT rhand
								{
									OFFSET 0 0 0
CHANNELS 3 Zrotation Xrotation Yrotation
									JOINT RFingers
									{
OFFSET 0 -0.691880 0.000000
CHANNELS 3 Zrotation Xrotation Yrotation
										End Site
										{
OFFSET 0 -0.557810 0.000000
										}
									}
								}
								JOINT RThumb
								{
OFFSET 0 0.000000 0.000000
CHANNELS 3 Zrotation Xrotation Yrotation
									End Site
									{
OFFSET 0 -0.566330 0.566330
									}
								}
							}
						}
					}
				}
			}
		}
	}
}
MOTION
Frames: 6
Frame Time: 0.008333333333333333
0.531430 17.518635 9.364410 -9.244203 12.559599 1.786353 0.000000 0.000000 0.000000 -12.264201 -29.366878 16.744366 0.017417 -0.851267 -2.339727 -1.734842 23.780974 -17.407045 0.810145 -5.743736 -16.042707 0.000000 0.000000 0.000000 30.621120 15.726459 6.746853 -0.273849 -3.366163 9.299876 0.563723 -21.915238 -26.707819 -0.145699 -2.459835 6.778232 0.409605 -7.502819 0.269264 2.381055 -9.917569 -6.067849 2.773131 -4.875252 -6.105961 -9.228533 -10.708003 -6.419530 3.965975 -16.920932 41.573856 0.473444 -8.176520 17.656341 0.000000 0.000000 0.000000 4.814268 -25.197211 -121.543804 70.928655 -58.578650 43.562683 -9.656377 -42.415301 17.021403 0.000000 0.000000 0.000000 -7.125000 0.000000 0.000000 -24.269025 13.636563 -19.762666 0.000000 0.000000 0.000000 -44.092169 39.591464 72.285051 -132.531313 -51.922026 -95.833148 -22.062536 41.377918 16.930351 0.000000 0.000000 0.000000 7.125000 0.000000 0.000000 5.629917 48.081417 -0.431427
0.531628 17.518960 9.368136 -9.391274 12.432812 1.805397 0.000000 0.000000 0.000000 -12.157352 -29.498376 16.923615 0.018940 -0.888891 -2.443158 -1.764647 23.996402 -17.657227 0.767646 -5.594977 -15.613546 0.000000 0.000000 0.000000 30.781543 15.810290 6.636917 -0.282314 -3.417181 9.442596 0.566875 -21.890726 -26.640374 -0.135333 -2.371139 6.532555 0.481250 -7.554520 0.219578 2.434362 -9.982786 -6.044589 2.782870 -4.911212 -6.053591 -9.516766 -10.801704 -6.351061 4.203171 -17.097169 41.383123 0.594056 -8.269966 17.622671 0.000000 0.000000 0.000000 4.243438 -25.360669 -121.205735 68.996781 -58.265522 41.916646 -17.346539 -44.021336 14.650865 0.000000 0.000000 0.000000 -7.125000 0.000000 0.000000 -29.099221 15.498847 -23.580667 0.000000 0.000000 0.000000 -45.106683 38.696243 72.514437 -132.283852 -52.031799 -95.638248 -22.076533 42.953680 15.177545 0.000000 0.000000 0.000000 7.125000 0.000000 0.000000 5.229784 46.229781 -0.159641
0.532861 17.517539 9.372760 -9.324649 12.333312 1.824050 0.000000 0.000000 0.000000 -12.372180 -29.645630 17.164215 0.019905 -0.911541 -2.505468 -1.803240 24.243086 -17.867428 0.733073 -5.470119 -15.254458 0.000000 0.000000 0.000000 30.701180 15.816220 6.626238 -0.284885 -3.432687 9.485747 0.560994 -21.835777 -26.597673 -0.127474 -2.301373 6.339223 0.361942 -7.578073 0.227019 2.408147 -10.020392 -6.019450 2.818513 -4.925614 -6.013859 -9.501984 -10.914304 -6.115214 4.066461 -17.201233 41.123212 0.535840 -8.344952 17.400513 0.000000 0.000000 0.000000 3.929072 -25.423072 -120.945691 67.272891 -57.954426 40.453036 -21.864828 -45.573494 14.129637 0.000000 0.000000 0.000000 -7.125000 0.000000 0.000000 -31.631158 15.538328 -26.492836 0.000000 0.000000 0.000000 -46.067181 37.866644 72.701542 -132.293529 -52.027563 -95.645874 -23.194421 45.063039 13.803825 0.000000 0.000000 0.000000 7.125000 0.000000 0.000000 3.932312 44.908501 0.008107
0.534207 17.516807 9.378058 -9.161195 12.134267 1.888030 0.000000 0.000000 0.000000 -12.677552 -29.692466 17.374821 0.020826 -0.931185 -2.559493 -1.828136 24.438176 -18.141920 0.700715 -5.350600 -14.911365 0.000000 0.000000 0.000000 30.494856 15.815232 6.593912 -0.285912 -3.438888 9.503205 0.557989 -21.713801 -26.419833 -0.114012 -2.176419 5.993446 0.099448 -7.585178 0.208707 2.400357 -10.040462 -6.026606 2.945518 -4.924018 -5.966305 -9.620715 -11.039014 -6.064442 3.940451 -17.328129 41.099336 0.476666 -8.434641 17.385566 0.000000 0.000000 0.000000 3.614478 -25.409319 -120.550065 66.124434 -57.731508 39.480789 -27.761025 -51.966890 10.163702 0.000000 0.000000 0.000000 -7.125000 0.000000 0.000000 -35.497860 18.244353 -28.797898 0.000000 0.000000 0.000000 -47.088392 36.966641 72.960919 -132.446281 -51.959889 -95.766201 -26.506857 49.495309 14.636462 0.000000 0.000000 0.000000 7.125000 0.000000 0.000000 0.964646 46.250443 -0.019584
0.534170 17.516015 9.382796 -9.322100 11.941379 1.851621 0.000000 0.000000 0.000000 -12.546947 -29.655743 17.528809 0.022019 -0.958167 -2.633722 -1.856976 24.615781 -18.284978 0.711004 -5.388823 -15.021051 0.000000 0.000000 0.000000 30.690975 15.848598 6.618889 -0.286881 -3.444336 9.518527 0.553196 -21.612880 -26.291664 -0.112945 -2.166431 5.965889 0.164030 -7.615341 0.306727 2.482634 -10.074137 -6.076377 3.017153 -4.939333 -6.070107 -9.943963 -11.162879 -6.074392 3.891438 -17.486895 41.328792 0.460749 -8.551093 17.578347 0.000000 0.000000 0.000000 3.303810 -25.265666 -120.043521 64.858032 -57.471289 38.411237 -33.526251 -56.395021 6.607289 0.000000 0.000000 0.000000 -7.125000 0.000000 0.000000 -38.891640 19.999750 -31.622687 0.000000 0.000000 0.000000 -48.146282 35.880557 73.498462 -132.744187 -51.826870 -96.000606 -28.128305 51.592094 14.526896 0.000000 0.000000 0.000000 7.125000 0.000000 0.000000 -0.581592 46.352535 0.018834
0.536750 17.516125 9.388587 -9.346643 11.777596 1.866420 0.000000 0.000000 0.000000 -12.620871 -29.695985 17.708581 0.023037 -0.979148 -2.691481 -1.888309 24.814516 -18.467477 0.683905 -5.287143 -14.729302 0.000000 0.000000 0.000000 30.721293 15.888617 6.663845 -0.285425 -3.436026 9.495141 0.547301 -21.534835 -26.211820 -0.108901 -2.127544 5.858343 0.231166 -7.664270 0.740443 2.487453 -10.132407 -6.433595 3.096138 -4.954950 -6.708467 -10.180751 -11.187113 -5.656551 3.726669 -17.507643 41.603498 0.440725 -8.635691 17.647364 0.000000 0.000000 0.000000 3.050490 -24.558427 -120.406155 64.392670 -57.371125 38.019086 -32.733464 -62.170880 4.120996 0.000000 0.000000 0.000000 -7.125000 0.000000 0.000000 -39.417321 22.525921 -28.924824 0.000000 0.000000 0.000000 -49.190074 34.836243 74.519608 -133.138386 -51.648536 -96.310084 -28.887043 52.252827 14.441717 0.000000 0.000000 0.000000 7.125000 0.000000 0.000000 -1.314537 46.366146 0.045455
